<ttFont>
<head>
    <!-- Most of this table will be recalculated by the compiler -->
    <tableVersion value="1.0"/>
    <fontRevision value="1.0"/>
    <checkSumAdjustment value="0xfd68c3a"/>
    <magicNumber value="0x5f0f3cf5"/>
    <flags value="00000000 00011111"/>
    <unitsPerEm value="1000"/>
    <created value="Tue Jan 17 04:00:36 2017"/>
    <modified value="Tue Jan 17 04:00:36 2017"/>
    <xMin value="-1005"/>
    <yMin value="-862"/>
    <xMax value="1980"/>
    <yMax value="1360"/>
    <macStyle value="00000000 00000000"/>
    <lowestRecPPEM value="8"/>
    <fontDirectionHint value="2"/>
    <indexToLocFormat value="0"/>
    <glyphDataFormat value="0"/>
  </head>
    <TTGlyph name=".notdef" xMin="50" yMin="0" xMax="200" yMax="533">
      <contour>
        <pt x="50" y="0" on="1"/>
        <pt x="50" y="533" on="1"/>
        <pt x="200" y="533" on="1"/>
        <pt x="200" y="0" on="1"/>
      </contour>
      <contour>
        <pt x="100" y="50" on="1"/>
        <pt x="150" y="50" on="1"/>
        <pt x="150" y="483" on="1"/>
        <pt x="100" y="483" on="1"/>
      </contour>
    </TTGlyph>
    <TTGlyph name="backslash" xMin="55" yMin="-649" xMax="754" yMax="1150">
      <contour>
        <pt x="754" y="-625" on="1"/>
        <pt x="754" y="-649" on="0"/>
        <pt x="731" y="-649" on="1"/>
        <pt x="715" y="-649" on="0"/>
        <pt x="712" y="-639" on="1"/>
        <pt x="709" y="-635" on="0"/>
        <pt x="56" y="1119" on="0"/>
        <pt x="55" y="1124" on="1"/>
        <pt x="54" y="1135" on="0"/>
        <pt x="69" y="1150" on="0"/>
        <pt x="80" y="1150" on="1"/>
        <pt x="92" y="1150" on="0"/>
        <pt x="98" y="1140" on="1"/>
        <pt x="101" y="1137" on="0"/>
        <pt x="754" y="-614" on="0"/>
      </contour>
    </TTGlyph>
    <TTGlyph name="braceleft" xMin="119" yMin="-649" xMax="547" yMax="1150">
      <contour>
        <pt x="547" y="-643" on="1"/>
        <pt x="541" y="-649" on="1"/>
        <pt x="528" y="-649" on="1"/>
        <pt x="515" y="-649" on="0"/>
        <pt x="503" y="-645" on="1"/>
        <pt x="324" y="-582" on="0"/>
        <pt x="293" y="-466" on="1"/>
        <pt x="289" y="-449" on="0"/>
        <pt x="288" y="-407" on="0"/>
        <pt x="287" y="-200" on="1"/>
        <pt x="286" y="42" on="1"/>
        <pt x="284" y="53" on="1"/>
        <pt x="279" y="77" on="0"/>
        <pt x="272" y="92" on="1"/>
        <pt x="238" y="177" on="0"/>
        <pt x="133" y="228" on="1"/>
        <pt x="123" y="231" on="0"/>
        <pt x="119" y="238" on="0"/>
        <pt x="119" y="262" on="0"/>
        <pt x="123" y="270" on="0"/>
        <pt x="133" y="273" on="1"/>
        <pt x="238" y="324" on="0"/>
        <pt x="272" y="409" on="1"/>
        <pt x="279" y="424" on="0"/>
        <pt x="284" y="449" on="1"/>
        <pt x="286" y="460" on="1"/>
        <pt x="287" y="701" on="1"/>
        <pt x="287" y="737" on="0"/>
        <pt x="287" y="794" on="1"/>
        <pt x="288" y="949" on="0"/>
        <pt x="292" y="963" on="1"/>
        <pt x="293" y="966" on="0"/>
        <pt x="293" y="967" on="1"/>
        <pt x="314" y="1044" on="0"/>
        <pt x="406" y="1101" on="1"/>
        <pt x="449" y="1126" on="0"/>
        <pt x="508" y="1148" on="1"/>
        <pt x="516" y="1150" on="0"/>
        <pt x="527" y="1150" on="1"/>
        <pt x="541" y="1150" on="1"/>
        <pt x="547" y="1144" on="1"/>
        <pt x="547" y="1130" on="1"/>
        <pt x="547" y="1117" on="0"/>
        <pt x="544" y="1112" on="0"/>
        <pt x="536" y="1109" on="1"/>
        <pt x="498" y="1094" on="0"/>
        <pt x="467" y="1071" on="1"/>
        <pt x="396" y="1021" on="0"/>
        <pt x="381" y="950" on="1"/>
        <pt x="379" y="940" on="1"/>
        <pt x="378" y="699" on="1"/>
        <pt x="378" y="657" on="0"/>
        <pt x="378" y="594" on="1"/>
        <pt x="377" y="452" on="0"/>
        <pt x="374" y="438" on="1"/>
        <pt x="373" y="437" on="0"/>
        <pt x="373" y="436" on="1"/>
        <pt x="350" y="348" on="0"/>
        <pt x="243" y="282" on="1"/>
        <pt x="192" y="257" on="0"/>
        <pt x="186" y="254" on="1"/>
        <pt x="176" y="251" on="1"/>
        <pt x="188" y="245" on="1"/>
        <pt x="343" y="183" on="0"/>
        <pt x="373" y="65" on="1"/>
        <pt x="373" y="64" on="0"/>
        <pt x="374" y="63" on="1"/>
        <pt x="377" y="49" on="0"/>
        <pt x="378" y="-93" on="1"/>
        <pt x="378" y="-156" on="0"/>
        <pt x="378" y="-198" on="1"/>
        <pt x="379" y="-438" on="1"/>
        <pt x="381" y="-449" on="1"/>
        <pt x="396" y="-520" on="0"/>
        <pt x="467" y="-570" on="1"/>
        <pt x="498" y="-593" on="0"/>
        <pt x="536" y="-608" on="1"/>
        <pt x="544" y="-611" on="0"/>
        <pt x="547" y="-616" on="0"/>
        <pt x="547" y="-629" on="1"/>
      </contour>
    </TTGlyph>
    <TTGlyph name="braceright" xMin="119" yMin="-649" xMax="547" yMax="1150">
      <contour>
        <pt x="119" y="1130" on="1"/>
        <pt x="119" y="1145" on="0"/>
        <pt x="124" y="1150" on="0"/>
        <pt x="139" y="1150" on="1"/>
        <pt x="152" y="1150" on="0"/>
        <pt x="165" y="1145" on="1"/>
        <pt x="227" y="1123" on="0"/>
        <pt x="273" y="1092" on="1"/>
        <pt x="354" y="1037" on="0"/>
        <pt x="373" y="964" on="1"/>
        <pt x="378" y="942" on="0"/>
        <pt x="378" y="702" on="1"/>
        <pt x="378" y="469" on="0"/>
        <pt x="379" y="462" on="1"/>
        <pt x="386" y="394" on="0"/>
        <pt x="439" y="339" on="1"/>
        <pt x="482" y="296" on="0"/>
        <pt x="535" y="272" on="1"/>
        <pt x="544" y="268" on="0"/>
        <pt x="547" y="263" on="0"/>
        <pt x="547" y="251" on="1"/>
        <pt x="547" y="238" on="0"/>
        <pt x="544" y="233" on="0"/>
        <pt x="535" y="229" on="1"/>
        <pt x="503" y="214" on="0"/>
        <pt x="477" y="194" on="1"/>
        <pt x="390" y="129" on="0"/>
        <pt x="379" y="39" on="1"/>
        <pt x="378" y="32" on="0"/>
        <pt x="378" y="-201" on="1"/>
        <pt x="378" y="-441" on="0"/>
        <pt x="373" y="-463" on="1"/>
        <pt x="354" y="-536" on="0"/>
        <pt x="273" y="-591" on="1"/>
        <pt x="227" y="-622" on="0"/>
        <pt x="165" y="-644" on="1"/>
        <pt x="152" y="-649" on="0"/>
        <pt x="139" y="-649" on="1"/>
        <pt x="125" y="-649" on="0"/>
        <pt x="119" y="-643" on="0"/>
        <pt x="119" y="-629" on="1"/>
        <pt x="119" y="-620" on="0"/>
        <pt x="123" y="-611" on="0"/>
        <pt x="127" y="-608" on="0"/>
        <pt x="139" y="-604" on="0"/>
        <pt x="143" y="-602" on="1"/>
        <pt x="195" y="-579" on="0"/>
        <pt x="275" y="-498" on="0"/>
        <pt x="285" y="-447" on="1"/>
        <pt x="286" y="-435" on="0"/>
        <pt x="288" y="38" on="0"/>
        <pt x="289" y="51" on="1"/>
        <pt x="301" y="101" on="0"/>
        <pt x="347" y="166" on="0"/>
        <pt x="390" y="197" on="1"/>
        <pt x="431" y="227" on="0"/>
        <pt x="478" y="246" on="1"/>
        <pt x="489" y="250" on="1"/>
        <pt x="480" y="254" on="1"/>
        <pt x="366" y="303" on="0"/>
        <pt x="321" y="374" on="1"/>
        <pt x="302" y="402" on="0"/>
        <pt x="293" y="434" on="1"/>
        <pt x="289" y="451" on="0"/>
        <pt x="288" y="493" on="0"/>
        <pt x="287" y="699" on="1"/>
        <pt x="286" y="941" on="0"/>
        <pt x="285" y="948" on="1"/>
        <pt x="275" y="999" on="0"/>
        <pt x="195" y="1080" on="0"/>
        <pt x="143" y="1103" on="1"/>
        <pt x="139" y="1105" on="0"/>
        <pt x="127" y="1109" on="0"/>
        <pt x="123" y="1112" on="0"/>
        <pt x="119" y="1121" on="0"/>
      </contour>
    </TTGlyph>
    <TTGlyph name="bracketleft" xMin="224" yMin="-649" xMax="455" yMax="1150">
      <contour>
        <pt x="224" y="-649" on="1"/>
        <pt x="224" y="1150" on="1"/>
        <pt x="455" y="1150" on="1"/>
        <pt x="455" y="1099" on="1"/>
        <pt x="275" y="1099" on="1"/>
        <pt x="275" y="-598" on="1"/>
        <pt x="455" y="-598" on="1"/>
        <pt x="455" y="-649" on="1"/>
      </contour>
    </TTGlyph>
    <TTGlyph name="bracketright" xMin="16" yMin="-649" xMax="247" yMax="1150">
      <contour>
        <pt x="16" y="1099" on="1"/>
        <pt x="16" y="1150" on="1"/>
        <pt x="247" y="1150" on="1"/>
        <pt x="247" y="-649" on="1"/>
        <pt x="16" y="-649" on="1"/>
        <pt x="16" y="-598" on="1"/>
        <pt x="196" y="-598" on="1"/>
        <pt x="196" y="1099" on="1"/>
      </contour>
    </TTGlyph>
    <TTGlyph name="circumflex" xMin="-5" yMin="565" xMax="1004" yMax="772">
      <contour>
        <pt x="-5" y="603" on="1"/>
        <pt x="-4" y="603" on="0"/>
        <pt x="212" y="675" on="0"/>
        <pt x="462" y="759" on="0"/>
        <pt x="499" y="772" on="1"/>
        <pt x="999" y="604" on="0"/>
        <pt x="1004" y="603" on="1"/>
        <pt x="1004" y="600" on="0"/>
        <pt x="993" y="565" on="0"/>
        <pt x="991" y="565" on="1"/>
        <pt x="960" y="574" on="1"/>
        <pt x="929" y="582" on="0"/>
        <pt x="802" y="616" on="0"/>
        <pt x="745" y="631" on="1"/>
        <pt x="500" y="698" on="1"/>
        <pt x="497" y="698" on="0"/>
        <pt x="254" y="631" on="1"/>
        <pt x="197" y="616" on="0"/>
        <pt x="70" y="582" on="0"/>
        <pt x="39" y="574" on="1"/>
        <pt x="8" y="565" on="1"/>
        <pt x="6" y="565" on="0"/>
        <pt x="-5" y="600" on="0"/>
      </contour>
    </TTGlyph>
    <TTGlyph name="integral" xMin="55" yMin="-862" xMax="944" yMax="1360">
      <contour>
        <pt x="167" y="-741" on="1"/>
        <pt x="167" y="-784" on="0"/>
        <pt x="114" y="-798" on="1"/>
        <pt x="116" y="-801" on="0"/>
        <pt x="120" y="-804" on="1"/>
        <pt x="139" y="-824" on="0"/>
        <pt x="165" y="-824" on="1"/>
        <pt x="178" y="-825" on="0"/>
        <pt x="192" y="-812" on="1"/>
        <pt x="243" y="-761" on="0"/>
        <pt x="296" y="-511" on="1"/>
        <pt x="324" y="-381" on="0"/>
        <pt x="367" y="-133" on="1"/>
        <pt x="457" y="397" on="0"/>
        <pt x="591" y="934" on="1"/>
        <pt x="613" y="1018" on="0"/>
        <pt x="636" y="1100" on="0"/>
        <pt x="682" y="1233" on="0"/>
        <pt x="733" y="1314" on="0"/>
        <pt x="764" y="1336" on="1"/>
        <pt x="797" y="1360" on="0"/>
        <pt x="828" y="1360" on="1"/>
        <pt x="879" y="1360" on="0"/>
        <pt x="941" y="1294" on="0"/>
        <pt x="944" y="1245" on="1"/>
        <pt x="944" y="1216" on="0"/>
        <pt x="915" y="1183" on="0"/>
        <pt x="887" y="1183" on="1"/>
        <pt x="864" y="1183" on="0"/>
        <pt x="832" y="1215" on="0"/>
        <pt x="832" y="1239" on="1"/>
        <pt x="832" y="1282" on="0"/>
        <pt x="885" y="1296" on="1"/>
        <pt x="882" y="1300" on="1"/>
        <pt x="879" y="1303" on="0"/>
        <pt x="869" y="1311" on="0"/>
        <pt x="866" y="1313" on="1"/>
        <pt x="851" y="1323" on="0"/>
        <pt x="833" y="1323" on="1"/>
        <pt x="828" y="1323" on="0"/>
        <pt x="826" y="1322" on="1"/>
        <pt x="794" y="1313" on="0"/>
        <pt x="761" y="1222" on="1"/>
        <pt x="728" y="1132" on="0"/>
        <pt x="688" y="929" on="1"/>
        <pt x="658" y="783" on="0"/>
        <pt x="633" y="628" on="1"/>
        <pt x="537" y="79" on="0"/>
        <pt x="409" y="-435" on="1"/>
        <pt x="377" y="-562" on="0"/>
        <pt x="355" y="-629" on="1"/>
        <pt x="318" y="-741" on="0"/>
        <pt x="274" y="-799" on="1"/>
        <pt x="229" y="-862" on="0"/>
        <pt x="165" y="-862" on="1"/>
        <pt x="120" y="-862" on="0"/>
        <pt x="57" y="-794" on="0"/>
        <pt x="55" y="-746" on="1"/>
        <pt x="55" y="-718" on="0"/>
        <pt x="85" y="-685" on="0"/>
        <pt x="112" y="-685" on="1"/>
        <pt x="135" y="-685" on="0"/>
        <pt x="167" y="-717" on="0"/>
      </contour>
    </TTGlyph>
    <TTGlyph name="parenleft" xMin="180" yMin="-649" xMax="561" yMax="1150">
      <contour>
        <pt x="561" y="-640" on="1"/>
        <pt x="561" y="-643" on="0"/>
        <pt x="555" y="-649" on="1"/>
        <pt x="527" y="-649" on="1"/>
        <pt x="425" y="-562" on="0"/>
        <pt x="273" y="-311" on="0"/>
        <pt x="232" y="-161" on="1"/>
        <pt x="180" y="26" on="0"/>
        <pt x="180" y="250" on="1"/>
        <pt x="180" y="473" on="0"/>
        <pt x="232" y="662" on="1"/>
        <pt x="316" y="969" on="0"/>
        <pt x="527" y="1150" on="1"/>
        <pt x="555" y="1150" on="1"/>
        <pt x="561" y="1144" on="0"/>
        <pt x="561" y="1141" on="1"/>
        <pt x="561" y="1137" on="0"/>
        <pt x="548" y="1123" on="1"/>
        <pt x="518" y="1090" on="0"/>
        <pt x="486" y="1050" on="1"/>
        <pt x="313" y="816" on="0"/>
        <pt x="280" y="445" on="1"/>
        <pt x="272" y="368" on="0"/>
        <pt x="272" y="251" on="1"/>
        <pt x="272" y="133" on="0"/>
        <pt x="280" y="56" on="1"/>
        <pt x="318" y="-374" on="0"/>
        <pt x="548" y="-622" on="1"/>
        <pt x="561" y="-636" on="0"/>
      </contour>
    </TTGlyph>
    <TTGlyph name="parenright" xMin="35" yMin="-649" xMax="416" yMax="1150">
      <contour>
        <pt x="35" y="1138" on="1"/>
        <pt x="35" y="1146" on="0"/>
        <pt x="43" y="1150" on="0"/>
        <pt x="56" y="1150" on="1"/>
        <pt x="69" y="1150" on="1"/>
        <pt x="171" y="1063" on="0"/>
        <pt x="323" y="812" on="0"/>
        <pt x="364" y="662" on="1"/>
        <pt x="416" y="475" on="0"/>
        <pt x="416" y="250" on="1"/>
        <pt x="416" y="28" on="0"/>
        <pt x="364" y="-161" on="1"/>
        <pt x="280" y="-468" on="0"/>
        <pt x="69" y="-649" on="1"/>
        <pt x="56" y="-649" on="1"/>
        <pt x="42" y="-649" on="0"/>
        <pt x="35" y="-645" on="0"/>
        <pt x="35" y="-637" on="1"/>
        <pt x="36" y="-636" on="0"/>
        <pt x="48" y="-622" on="1"/>
        <pt x="278" y="-374" on="0"/>
        <pt x="316" y="56" on="1"/>
        <pt x="324" y="133" on="0"/>
        <pt x="324" y="251" on="1"/>
        <pt x="324" y="368" on="0"/>
        <pt x="316" y="445" on="1"/>
        <pt x="283" y="816" on="0"/>
        <pt x="110" y="1050" on="1"/>
        <pt x="78" y="1091" on="0"/>
        <pt x="48" y="1123" on="1"/>
        <pt x="36" y="1137" on="0"/>
      </contour>
    </TTGlyph>
    <TTGlyph name="product" xMin="56" yMin="-450" xMax="1221" yMax="950">
      <contour>
        <pt x="1058" y="-311" on="1"/>
        <pt x="1077" y="-396" on="0"/>
        <pt x="1211" y="-396" on="1"/>
        <pt x="1221" y="-396" on="1"/>
        <pt x="1221" y="-450" on="1"/>
        <pt x="725" y="-450" on="1"/>
        <pt x="725" y="-396" on="1"/>
        <pt x="735" y="-396" on="1"/>
        <pt x="860" y="-396" on="0"/>
        <pt x="886" y="-320" on="1"/>
        <pt x="889" y="-311" on="1"/>
        <pt x="889" y="896" on="1"/>
        <pt x="388" y="896" on="1"/>
        <pt x="388" y="292" on="1"/>
        <pt x="389" y="-311" on="1"/>
        <pt x="408" y="-396" on="0"/>
        <pt x="542" y="-396" on="1"/>
        <pt x="552" y="-396" on="1"/>
        <pt x="552" y="-450" on="1"/>
        <pt x="56" y="-450" on="1"/>
        <pt x="56" y="-396" on="1"/>
        <pt x="66" y="-396" on="1"/>
        <pt x="191" y="-396" on="0"/>
        <pt x="217" y="-320" on="1"/>
        <pt x="220" y="-311" on="1"/>
        <pt x="220" y="812" on="1"/>
        <pt x="209" y="840" on="0"/>
        <pt x="184" y="870" on="0"/>
        <pt x="159" y="881" on="1"/>
        <pt x="121" y="896" on="0"/>
        <pt x="66" y="896" on="1"/>
        <pt x="56" y="896" on="1"/>
        <pt x="56" y="950" on="1"/>
        <pt x="1221" y="950" on="1"/>
        <pt x="1221" y="896" on="1"/>
        <pt x="1211" y="896" on="1"/>
        <pt x="1080" y="896" on="0"/>
        <pt x="1058" y="812" on="1"/>
      </contour>
    </TTGlyph>
    <TTGlyph name="radical" xMin="111" yMin="-650" xMax="1020" yMax="1150">
      <contour>
        <pt x="1001" y="1150" on="1"/>
        <pt x="1018" y="1150" on="0"/>
        <pt x="1020" y="1132" on="1"/>
        <pt x="1020" y="1128" on="0"/>
        <pt x="478" y="-588" on="0"/>
        <pt x="460" y="-643" on="1"/>
        <pt x="453" y="-650" on="0"/>
        <pt x="436" y="-650" on="1"/>
        <pt x="424" y="-650" on="1"/>
        <pt x="422" y="-645" on="0"/>
        <pt x="417" y="-625" on="1"/>
        <pt x="364" y="-437" on="0"/>
        <pt x="203" y="119" on="1"/>
        <pt x="188" y="101" on="0"/>
        <pt x="170" y="80" on="1"/>
        <pt x="138" y="41" on="1"/>
        <pt x="129" y="49" on="0"/>
        <pt x="111" y="67" on="1"/>
        <pt x="136" y="97" on="1"/>
        <pt x="176" y="146" on="0"/>
        <pt x="212" y="188" on="1"/>
        <pt x="264" y="248" on="1"/>
        <pt x="472" y="-474" on="1"/>
        <pt x="556" y="-211" on="0"/>
        <pt x="810" y="595" on="0"/>
        <pt x="971" y="1106" on="0"/>
        <pt x="983" y="1140" on="1"/>
        <pt x="989" y="1150" on="0"/>
      </contour>
    </TTGlyph>
    <TTGlyph name="slash" xMin="56" yMin="-649" xMax="754" yMax="1150">
      <contour>
        <pt x="78" y="-649" on="1"/>
        <pt x="56" y="-647" on="0"/>
        <pt x="56" y="-625" on="1"/>
        <pt x="56" y="-614" on="0"/>
        <pt x="709" y="1137" on="0"/>
        <pt x="712" y="1140" on="1"/>
        <pt x="715" y="1150" on="0"/>
        <pt x="732" y="1150" on="1"/>
        <pt x="754" y="1148" on="0"/>
        <pt x="754" y="1126" on="1"/>
        <pt x="754" y="1116" on="0"/>
        <pt x="101" y="-636" on="0"/>
        <pt x="98" y="-639" on="1"/>
        <pt x="95" y="-649" on="0"/>
      </contour>
    </TTGlyph>
    <TTGlyph name="summation" xMin="55" yMin="-450" xMax="1388" yMax="950">
      <contour>
        <pt x="60" y="948" on="1"/>
        <pt x="63" y="950" on="0"/>
        <pt x="665" y="950" on="1"/>
        <pt x="1267" y="950" on="1"/>
        <pt x="1325" y="815" on="1"/>
        <pt x="1338" y="784" on="0"/>
        <pt x="1370" y="708" on="0"/>
        <pt x="1385" y="674" on="0"/>
        <pt x="1388" y="669" on="1"/>
        <pt x="1348" y="669" on="1"/>
        <pt x="1341" y="683" on="1"/>
        <pt x="1320" y="724" on="0"/>
        <pt x="1285" y="761" on="1"/>
        <pt x="1251" y="794" on="0"/>
        <pt x="1211" y="817" on="1"/>
        <pt x="1099" y="885" on="0"/>
        <pt x="895" y="898" on="1"/>
        <pt x="846" y="901" on="0"/>
        <pt x="543" y="902" on="1"/>
        <pt x="251" y="902" on="1"/>
        <pt x="259" y="891" on="1"/>
        <pt x="722" y="258" on="0"/>
        <pt x="724" y="252" on="1"/>
        <pt x="725" y="250" on="0"/>
        <pt x="724" y="246" on="1"/>
        <pt x="196" y="-356" on="1"/>
        <pt x="196" y="-357" on="0"/>
        <pt x="407" y="-357" on="1"/>
        <pt x="832" y="-357" on="0"/>
        <pt x="866" y="-355" on="1"/>
        <pt x="1003" y="-348" on="0"/>
        <pt x="1077" y="-330" on="1"/>
        <pt x="1224" y="-294" on="0"/>
        <pt x="1307" y="-196" on="1"/>
        <pt x="1328" y="-169" on="0"/>
        <pt x="1348" y="-124" on="1"/>
        <pt x="1388" y="-124" on="1"/>
        <pt x="1385" y="-130" on="0"/>
        <pt x="1325" y="-294" on="1"/>
        <pt x="1267" y="-449" on="1"/>
        <pt x="666" y="-450" on="1"/>
        <pt x="64" y="-450" on="0"/>
        <pt x="61" y="-448" on="1"/>
        <pt x="55" y="-446" on="0"/>
        <pt x="55" y="-439" on="1"/>
        <pt x="55" y="-437" on="0"/>
        <pt x="57" y="-433" on="1"/>
        <pt x="92" y="-394" on="1"/>
        <pt x="126" y="-354" on="0"/>
        <pt x="260" y="-201" on="0"/>
        <pt x="325" y="-128" on="1"/>
        <pt x="591" y="175" on="0"/>
        <pt x="590" y="177" on="1"/>
        <pt x="590" y="178" on="0"/>
        <pt x="524" y="267" on="0"/>
        <pt x="379" y="466" on="0"/>
        <pt x="322" y="544" on="1"/>
        <pt x="56" y="909" on="1"/>
        <pt x="55" y="924" on="1"/>
        <pt x="55" y="945" on="0"/>
      </contour>
    </TTGlyph>
    <TTGlyph name="tilde" xMin="0" yMin="611" xMax="999" yMax="750">
      <contour>
        <pt x="304" y="749" on="1"/>
        <pt x="321" y="749" on="1"/>
        <pt x="361" y="749" on="0"/>
        <pt x="430" y="738" on="0"/>
        <pt x="469" y="726" on="0"/>
        <pt x="513" y="711" on="1"/>
        <pt x="605" y="678" on="0"/>
        <pt x="653" y="672" on="1"/>
        <pt x="665" y="670" on="0"/>
        <pt x="703" y="670" on="1"/>
        <pt x="781" y="670" on="0"/>
        <pt x="861" y="699" on="1"/>
        <pt x="922" y="720" on="0"/>
        <pt x="970" y="744" on="1"/>
        <pt x="973" y="745" on="0"/>
        <pt x="979" y="748" on="0"/>
        <pt x="981" y="749" on="1"/>
        <pt x="983" y="750" on="1"/>
        <pt x="986" y="742" on="0"/>
        <pt x="991" y="733" on="1"/>
        <pt x="999" y="717" on="1"/>
        <pt x="963" y="699" on="1"/>
        <pt x="876" y="656" on="0"/>
        <pt x="741" y="611" on="0"/>
        <pt x="664" y="611" on="1"/>
        <pt x="617" y="611" on="0"/>
        <pt x="568" y="624" on="1"/>
        <pt x="540" y="631" on="0"/>
        <pt x="487" y="650" on="1"/>
        <pt x="393" y="683" on="0"/>
        <pt x="346" y="689" on="1"/>
        <pt x="334" y="691" on="0"/>
        <pt x="296" y="691" on="1"/>
        <pt x="218" y="691" on="0"/>
        <pt x="138" y="662" on="1"/>
        <pt x="77" y="641" on="0"/>
        <pt x="29" y="617" on="1"/>
        <pt x="26" y="616" on="0"/>
        <pt x="20" y="613" on="0"/>
        <pt x="18" y="612" on="1"/>
        <pt x="16" y="611" on="1"/>
        <pt x="13" y="619" on="0"/>
        <pt x="8" y="628" on="1"/>
        <pt x="0" y="644" on="1"/>
        <pt x="36" y="662" on="1"/>
        <pt x="116" y="702" on="0"/>
        <pt x="176" y="722" on="1"/>
        <pt x="241" y="743" on="0"/>
      </contour>
    </TTGlyph>
    <TTGlyph name="tildecomb" xMin="-1000" yMin="611" xMax="-1" yMax="750">
      <contour>
        <pt x="-696" y="749" on="1"/>
        <pt x="-679" y="749" on="1"/>
        <pt x="-639" y="749" on="0"/>
        <pt x="-570" y="738" on="0"/>
        <pt x="-531" y="726" on="0"/>
        <pt x="-487" y="711" on="1"/>
        <pt x="-395" y="678" on="0"/>
        <pt x="-347" y="672" on="1"/>
        <pt x="-335" y="670" on="0"/>
        <pt x="-297" y="670" on="1"/>
        <pt x="-219" y="670" on="0"/>
        <pt x="-139" y="699" on="1"/>
        <pt x="-78" y="720" on="0"/>
        <pt x="-30" y="744" on="1"/>
        <pt x="-27" y="745" on="0"/>
        <pt x="-21" y="748" on="0"/>
        <pt x="-19" y="749" on="1"/>
        <pt x="-17" y="750" on="1"/>
        <pt x="-14" y="742" on="0"/>
        <pt x="-9" y="733" on="1"/>
        <pt x="-1" y="717" on="1"/>
        <pt x="-37" y="699" on="1"/>
        <pt x="-124" y="656" on="0"/>
        <pt x="-259" y="611" on="0"/>
        <pt x="-336" y="611" on="1"/>
        <pt x="-383" y="611" on="0"/>
        <pt x="-432" y="624" on="1"/>
        <pt x="-460" y="631" on="0"/>
        <pt x="-513" y="650" on="1"/>
        <pt x="-607" y="683" on="0"/>
        <pt x="-654" y="689" on="1"/>
        <pt x="-666" y="691" on="0"/>
        <pt x="-704" y="691" on="1"/>
        <pt x="-782" y="691" on="0"/>
        <pt x="-862" y="662" on="1"/>
        <pt x="-923" y="641" on="0"/>
        <pt x="-971" y="617" on="1"/>
        <pt x="-974" y="616" on="0"/>
        <pt x="-980" y="613" on="0"/>
        <pt x="-982" y="612" on="1"/>
        <pt x="-984" y="611" on="1"/>
        <pt x="-987" y="619" on="0"/>
        <pt x="-992" y="628" on="1"/>
        <pt x="-1000" y="644" on="1"/>
        <pt x="-964" y="662" on="1"/>
        <pt x="-884" y="702" on="0"/>
        <pt x="-824" y="722" on="1"/>
        <pt x="-759" y="743" on="0"/>
      </contour>
    </TTGlyph>
    <TTGlyph name="uni0302" xMin="-1005" yMin="565" xMax="4" yMax="772">
      <contour>
        <pt x="-1005" y="603" on="1"/>
        <pt x="-1004" y="603" on="0"/>
        <pt x="-788" y="675" on="0"/>
        <pt x="-538" y="759" on="0"/>
        <pt x="-501" y="772" on="1"/>
        <pt x="-1" y="604" on="0"/>
        <pt x="4" y="603" on="1"/>
        <pt x="4" y="600" on="0"/>
        <pt x="-7" y="565" on="0"/>
        <pt x="-9" y="565" on="1"/>
        <pt x="-40" y="574" on="1"/>
        <pt x="-71" y="582" on="0"/>
        <pt x="-198" y="616" on="0"/>
        <pt x="-255" y="631" on="1"/>
        <pt x="-500" y="698" on="1"/>
        <pt x="-503" y="698" on="0"/>
        <pt x="-746" y="631" on="1"/>
        <pt x="-803" y="616" on="0"/>
        <pt x="-930" y="582" on="0"/>
        <pt x="-961" y="574" on="1"/>
        <pt x="-992" y="565" on="1"/>
        <pt x="-994" y="565" on="0"/>
        <pt x="-1005" y="600" on="0"/>
      </contour>
    </TTGlyph>
    <TTGlyph name="uni2210" xMin="56" yMin="-450" xMax="1221" yMax="950">
      <contour>
        <pt x="1058" y="-311" on="1"/>
        <pt x="1077" y="-396" on="0"/>
        <pt x="1211" y="-396" on="1"/>
        <pt x="1221" y="-396" on="1"/>
        <pt x="1221" y="-450" on="1"/>
        <pt x="56" y="-450" on="1"/>
        <pt x="56" y="-396" on="1"/>
        <pt x="66" y="-396" on="1"/>
        <pt x="191" y="-396" on="0"/>
        <pt x="217" y="-320" on="1"/>
        <pt x="220" y="-311" on="1"/>
        <pt x="220" y="812" on="1"/>
        <pt x="209" y="840" on="0"/>
        <pt x="184" y="870" on="0"/>
        <pt x="159" y="881" on="1"/>
        <pt x="121" y="896" on="0"/>
        <pt x="66" y="896" on="1"/>
        <pt x="56" y="896" on="1"/>
        <pt x="56" y="950" on="1"/>
        <pt x="552" y="950" on="1"/>
        <pt x="552" y="896" on="1"/>
        <pt x="542" y="896" on="1"/>
        <pt x="411" y="896" on="0"/>
        <pt x="389" y="812" on="1"/>
        <pt x="388" y="208" on="1"/>
        <pt x="388" y="-396" on="1"/>
        <pt x="889" y="-396" on="1"/>
        <pt x="889" y="812" on="1"/>
        <pt x="878" y="840" on="0"/>
        <pt x="853" y="870" on="0"/>
        <pt x="828" y="881" on="1"/>
        <pt x="790" y="896" on="0"/>
        <pt x="735" y="896" on="1"/>
        <pt x="725" y="896" on="1"/>
        <pt x="725" y="950" on="1"/>
        <pt x="1221" y="950" on="1"/>
        <pt x="1221" y="896" on="1"/>
        <pt x="1211" y="896" on="1"/>
        <pt x="1080" y="896" on="0"/>
        <pt x="1058" y="812" on="1"/>
      </contour>
    </TTGlyph>
    <TTGlyph name="uni222C" xMin="55" yMin="-862" xMax="1472" yMax="1360">
      <contour>
        <pt x="167" y="-741" on="1"/>
        <pt x="167" y="-784" on="0"/>
        <pt x="114" y="-798" on="1"/>
        <pt x="116" y="-801" on="0"/>
        <pt x="120" y="-804" on="1"/>
        <pt x="139" y="-824" on="0"/>
        <pt x="165" y="-824" on="1"/>
        <pt x="178" y="-825" on="0"/>
        <pt x="192" y="-812" on="1"/>
        <pt x="243" y="-761" on="0"/>
        <pt x="296" y="-511" on="1"/>
        <pt x="324" y="-381" on="0"/>
        <pt x="367" y="-133" on="1"/>
        <pt x="457" y="397" on="0"/>
        <pt x="591" y="934" on="1"/>
        <pt x="613" y="1018" on="0"/>
        <pt x="636" y="1100" on="0"/>
        <pt x="682" y="1233" on="0"/>
        <pt x="733" y="1314" on="0"/>
        <pt x="764" y="1336" on="1"/>
        <pt x="797" y="1360" on="0"/>
        <pt x="828" y="1360" on="1"/>
        <pt x="879" y="1360" on="0"/>
        <pt x="941" y="1294" on="0"/>
        <pt x="944" y="1245" on="1"/>
        <pt x="944" y="1216" on="0"/>
        <pt x="915" y="1183" on="0"/>
        <pt x="887" y="1183" on="1"/>
        <pt x="864" y="1183" on="0"/>
        <pt x="832" y="1215" on="0"/>
        <pt x="832" y="1239" on="1"/>
        <pt x="832" y="1282" on="0"/>
        <pt x="885" y="1296" on="1"/>
        <pt x="882" y="1300" on="1"/>
        <pt x="879" y="1303" on="0"/>
        <pt x="869" y="1311" on="0"/>
        <pt x="866" y="1313" on="1"/>
        <pt x="851" y="1323" on="0"/>
        <pt x="833" y="1323" on="1"/>
        <pt x="828" y="1323" on="0"/>
        <pt x="826" y="1322" on="1"/>
        <pt x="794" y="1313" on="0"/>
        <pt x="761" y="1222" on="1"/>
        <pt x="728" y="1132" on="0"/>
        <pt x="688" y="929" on="1"/>
        <pt x="658" y="783" on="0"/>
        <pt x="633" y="628" on="1"/>
        <pt x="537" y="79" on="0"/>
        <pt x="409" y="-435" on="1"/>
        <pt x="377" y="-562" on="0"/>
        <pt x="355" y="-629" on="1"/>
        <pt x="318" y="-741" on="0"/>
        <pt x="274" y="-799" on="1"/>
        <pt x="229" y="-862" on="0"/>
        <pt x="165" y="-862" on="1"/>
        <pt x="120" y="-862" on="0"/>
        <pt x="57" y="-794" on="0"/>
        <pt x="55" y="-746" on="1"/>
        <pt x="55" y="-718" on="0"/>
        <pt x="85" y="-685" on="0"/>
        <pt x="112" y="-685" on="1"/>
        <pt x="135" y="-685" on="0"/>
        <pt x="167" y="-717" on="0"/>
      </contour>
      <contour>
        <pt x="695" y="-741" on="1"/>
        <pt x="695" y="-784" on="0"/>
        <pt x="642" y="-798" on="1"/>
        <pt x="644" y="-801" on="0"/>
        <pt x="648" y="-804" on="1"/>
        <pt x="667" y="-824" on="0"/>
        <pt x="693" y="-824" on="1"/>
        <pt x="706" y="-825" on="0"/>
        <pt x="720" y="-812" on="1"/>
        <pt x="771" y="-761" on="0"/>
        <pt x="824" y="-511" on="1"/>
        <pt x="852" y="-381" on="0"/>
        <pt x="895" y="-133" on="1"/>
        <pt x="985" y="397" on="0"/>
        <pt x="1119" y="934" on="1"/>
        <pt x="1141" y="1018" on="0"/>
        <pt x="1164" y="1100" on="0"/>
        <pt x="1210" y="1233" on="0"/>
        <pt x="1261" y="1314" on="0"/>
        <pt x="1292" y="1336" on="1"/>
        <pt x="1325" y="1360" on="0"/>
        <pt x="1356" y="1360" on="1"/>
        <pt x="1407" y="1360" on="0"/>
        <pt x="1469" y="1294" on="0"/>
        <pt x="1472" y="1245" on="1"/>
        <pt x="1472" y="1216" on="0"/>
        <pt x="1443" y="1183" on="0"/>
        <pt x="1415" y="1183" on="1"/>
        <pt x="1392" y="1183" on="0"/>
        <pt x="1360" y="1215" on="0"/>
        <pt x="1360" y="1239" on="1"/>
        <pt x="1360" y="1282" on="0"/>
        <pt x="1413" y="1296" on="1"/>
        <pt x="1410" y="1300" on="1"/>
        <pt x="1407" y="1303" on="0"/>
        <pt x="1397" y="1311" on="0"/>
        <pt x="1394" y="1313" on="1"/>
        <pt x="1379" y="1323" on="0"/>
        <pt x="1361" y="1323" on="1"/>
        <pt x="1356" y="1323" on="0"/>
        <pt x="1354" y="1322" on="1"/>
        <pt x="1322" y="1313" on="0"/>
        <pt x="1289" y="1222" on="1"/>
        <pt x="1256" y="1132" on="0"/>
        <pt x="1216" y="929" on="1"/>
        <pt x="1186" y="783" on="0"/>
        <pt x="1161" y="628" on="1"/>
        <pt x="1065" y="79" on="0"/>
        <pt x="937" y="-435" on="1"/>
        <pt x="905" y="-562" on="0"/>
        <pt x="883" y="-629" on="1"/>
        <pt x="846" y="-741" on="0"/>
        <pt x="802" y="-799" on="1"/>
        <pt x="757" y="-862" on="0"/>
        <pt x="693" y="-862" on="1"/>
        <pt x="648" y="-862" on="0"/>
        <pt x="585" y="-794" on="0"/>
        <pt x="583" y="-746" on="1"/>
        <pt x="583" y="-718" on="0"/>
        <pt x="613" y="-685" on="0"/>
        <pt x="640" y="-685" on="1"/>
        <pt x="663" y="-685" on="0"/>
        <pt x="695" y="-717" on="0"/>
      </contour>
    </TTGlyph>
    <TTGlyph name="uni222D" xMin="55" yMin="-862" xMax="1980" yMax="1360">
      <contour>
        <pt x="167" y="-741" on="1"/>
        <pt x="167" y="-784" on="0"/>
        <pt x="114" y="-798" on="1"/>
        <pt x="116" y="-801" on="0"/>
        <pt x="120" y="-804" on="1"/>
        <pt x="139" y="-824" on="0"/>
        <pt x="165" y="-824" on="1"/>
        <pt x="178" y="-825" on="0"/>
        <pt x="192" y="-812" on="1"/>
        <pt x="243" y="-761" on="0"/>
        <pt x="296" y="-511" on="1"/>
        <pt x="324" y="-381" on="0"/>
        <pt x="367" y="-133" on="1"/>
        <pt x="457" y="397" on="0"/>
        <pt x="591" y="934" on="1"/>
        <pt x="613" y="1018" on="0"/>
        <pt x="636" y="1100" on="0"/>
        <pt x="682" y="1233" on="0"/>
        <pt x="733" y="1314" on="0"/>
        <pt x="764" y="1336" on="1"/>
        <pt x="797" y="1360" on="0"/>
        <pt x="828" y="1360" on="1"/>
        <pt x="879" y="1360" on="0"/>
        <pt x="941" y="1294" on="0"/>
        <pt x="944" y="1245" on="1"/>
        <pt x="944" y="1216" on="0"/>
        <pt x="915" y="1183" on="0"/>
        <pt x="887" y="1183" on="1"/>
        <pt x="864" y="1183" on="0"/>
        <pt x="832" y="1215" on="0"/>
        <pt x="832" y="1239" on="1"/>
        <pt x="832" y="1282" on="0"/>
        <pt x="885" y="1296" on="1"/>
        <pt x="882" y="1300" on="1"/>
        <pt x="879" y="1303" on="0"/>
        <pt x="869" y="1311" on="0"/>
        <pt x="866" y="1313" on="1"/>
        <pt x="851" y="1323" on="0"/>
        <pt x="833" y="1323" on="1"/>
        <pt x="828" y="1323" on="0"/>
        <pt x="826" y="1322" on="1"/>
        <pt x="794" y="1313" on="0"/>
        <pt x="761" y="1222" on="1"/>
        <pt x="728" y="1132" on="0"/>
        <pt x="688" y="929" on="1"/>
        <pt x="658" y="783" on="0"/>
        <pt x="633" y="628" on="1"/>
        <pt x="537" y="79" on="0"/>
        <pt x="409" y="-435" on="1"/>
        <pt x="377" y="-562" on="0"/>
        <pt x="355" y="-629" on="1"/>
        <pt x="318" y="-741" on="0"/>
        <pt x="274" y="-799" on="1"/>
        <pt x="229" y="-862" on="0"/>
        <pt x="165" y="-862" on="1"/>
        <pt x="120" y="-862" on="0"/>
        <pt x="57" y="-794" on="0"/>
        <pt x="55" y="-746" on="1"/>
        <pt x="55" y="-718" on="0"/>
        <pt x="85" y="-685" on="0"/>
        <pt x="112" y="-685" on="1"/>
        <pt x="135" y="-685" on="0"/>
        <pt x="167" y="-717" on="0"/>
      </contour>
      <contour>
        <pt x="695" y="-741" on="1"/>
        <pt x="695" y="-784" on="0"/>
        <pt x="642" y="-798" on="1"/>
        <pt x="644" y="-801" on="0"/>
        <pt x="648" y="-804" on="1"/>
        <pt x="667" y="-824" on="0"/>
        <pt x="693" y="-824" on="1"/>
        <pt x="706" y="-825" on="0"/>
        <pt x="720" y="-812" on="1"/>
        <pt x="771" y="-761" on="0"/>
        <pt x="824" y="-511" on="1"/>
        <pt x="852" y="-381" on="0"/>
        <pt x="895" y="-133" on="1"/>
        <pt x="985" y="397" on="0"/>
        <pt x="1119" y="934" on="1"/>
        <pt x="1141" y="1018" on="0"/>
        <pt x="1164" y="1100" on="0"/>
        <pt x="1210" y="1233" on="0"/>
        <pt x="1261" y="1314" on="0"/>
        <pt x="1292" y="1336" on="1"/>
        <pt x="1325" y="1360" on="0"/>
        <pt x="1356" y="1360" on="1"/>
        <pt x="1407" y="1360" on="0"/>
        <pt x="1469" y="1294" on="0"/>
        <pt x="1472" y="1245" on="1"/>
        <pt x="1472" y="1216" on="0"/>
        <pt x="1443" y="1183" on="0"/>
        <pt x="1415" y="1183" on="1"/>
        <pt x="1392" y="1183" on="0"/>
        <pt x="1360" y="1215" on="0"/>
        <pt x="1360" y="1239" on="1"/>
        <pt x="1360" y="1282" on="0"/>
        <pt x="1413" y="1296" on="1"/>
        <pt x="1410" y="1300" on="1"/>
        <pt x="1407" y="1303" on="0"/>
        <pt x="1397" y="1311" on="0"/>
        <pt x="1394" y="1313" on="1"/>
        <pt x="1379" y="1323" on="0"/>
        <pt x="1361" y="1323" on="1"/>
        <pt x="1356" y="1323" on="0"/>
        <pt x="1354" y="1322" on="1"/>
        <pt x="1322" y="1313" on="0"/>
        <pt x="1289" y="1222" on="1"/>
        <pt x="1256" y="1132" on="0"/>
        <pt x="1216" y="929" on="1"/>
        <pt x="1186" y="783" on="0"/>
        <pt x="1161" y="628" on="1"/>
        <pt x="1065" y="79" on="0"/>
        <pt x="937" y="-435" on="1"/>
        <pt x="905" y="-562" on="0"/>
        <pt x="883" y="-629" on="1"/>
        <pt x="846" y="-741" on="0"/>
        <pt x="802" y="-799" on="1"/>
        <pt x="757" y="-862" on="0"/>
        <pt x="693" y="-862" on="1"/>
        <pt x="648" y="-862" on="0"/>
        <pt x="585" y="-794" on="0"/>
        <pt x="583" y="-746" on="1"/>
        <pt x="583" y="-718" on="0"/>
        <pt x="613" y="-685" on="0"/>
        <pt x="640" y="-685" on="1"/>
        <pt x="663" y="-685" on="0"/>
        <pt x="695" y="-717" on="0"/>
      </contour>
      <contour>
        <pt x="1203" y="-741" on="1"/>
        <pt x="1203" y="-784" on="0"/>
        <pt x="1150" y="-798" on="1"/>
        <pt x="1152" y="-801" on="0"/>
        <pt x="1156" y="-804" on="1"/>
        <pt x="1175" y="-824" on="0"/>
        <pt x="1201" y="-824" on="1"/>
        <pt x="1214" y="-825" on="0"/>
        <pt x="1228" y="-812" on="1"/>
        <pt x="1279" y="-761" on="0"/>
        <pt x="1332" y="-511" on="1"/>
        <pt x="1360" y="-381" on="0"/>
        <pt x="1403" y="-133" on="1"/>
        <pt x="1493" y="397" on="0"/>
        <pt x="1627" y="934" on="1"/>
        <pt x="1649" y="1018" on="0"/>
        <pt x="1672" y="1100" on="0"/>
        <pt x="1718" y="1233" on="0"/>
        <pt x="1769" y="1314" on="0"/>
        <pt x="1800" y="1336" on="1"/>
        <pt x="1833" y="1360" on="0"/>
        <pt x="1864" y="1360" on="1"/>
        <pt x="1915" y="1360" on="0"/>
        <pt x="1977" y="1294" on="0"/>
        <pt x="1980" y="1245" on="1"/>
        <pt x="1980" y="1216" on="0"/>
        <pt x="1951" y="1183" on="0"/>
        <pt x="1923" y="1183" on="1"/>
        <pt x="1900" y="1183" on="0"/>
        <pt x="1868" y="1215" on="0"/>
        <pt x="1868" y="1239" on="1"/>
        <pt x="1868" y="1282" on="0"/>
        <pt x="1921" y="1296" on="1"/>
        <pt x="1918" y="1300" on="1"/>
        <pt x="1915" y="1303" on="0"/>
        <pt x="1905" y="1311" on="0"/>
        <pt x="1902" y="1313" on="1"/>
        <pt x="1887" y="1323" on="0"/>
        <pt x="1869" y="1323" on="1"/>
        <pt x="1864" y="1323" on="0"/>
        <pt x="1862" y="1322" on="1"/>
        <pt x="1830" y="1313" on="0"/>
        <pt x="1797" y="1222" on="1"/>
        <pt x="1764" y="1132" on="0"/>
        <pt x="1724" y="929" on="1"/>
        <pt x="1694" y="783" on="0"/>
        <pt x="1669" y="628" on="1"/>
        <pt x="1573" y="79" on="0"/>
        <pt x="1445" y="-435" on="1"/>
        <pt x="1413" y="-562" on="0"/>
        <pt x="1391" y="-629" on="1"/>
        <pt x="1354" y="-741" on="0"/>
        <pt x="1310" y="-799" on="1"/>
        <pt x="1265" y="-862" on="0"/>
        <pt x="1201" y="-862" on="1"/>
        <pt x="1156" y="-862" on="0"/>
        <pt x="1093" y="-794" on="0"/>
        <pt x="1091" y="-746" on="1"/>
        <pt x="1091" y="-718" on="0"/>
        <pt x="1121" y="-685" on="0"/>
        <pt x="1148" y="-685" on="1"/>
        <pt x="1171" y="-685" on="0"/>
        <pt x="1203" y="-717" on="0"/>
      </contour>
    </TTGlyph>
    <TTGlyph name="uni222E" xMin="55" yMin="-862" xMax="944" yMax="1360">
      <contour>
        <pt x="167" y="-741" on="1"/>
        <pt x="167" y="-784" on="0"/>
        <pt x="114" y="-798" on="1"/>
        <pt x="116" y="-801" on="0"/>
        <pt x="120" y="-804" on="1"/>
        <pt x="139" y="-824" on="0"/>
        <pt x="165" y="-824" on="1"/>
        <pt x="178" y="-825" on="0"/>
        <pt x="192" y="-812" on="1"/>
        <pt x="243" y="-761" on="0"/>
        <pt x="296" y="-511" on="1"/>
        <pt x="342" y="-301" on="0"/>
        <pt x="390" y="2" on="1"/>
        <pt x="313" y="40" on="0"/>
        <pt x="276" y="99" on="1"/>
        <pt x="230" y="166" on="0"/>
        <pt x="230" y="249" on="1"/>
        <pt x="230" y="330" on="0"/>
        <pt x="276" y="400" on="1"/>
        <pt x="308" y="449" on="0"/>
        <pt x="417" y="513" on="0"/>
        <pt x="484" y="519" on="1"/>
        <pt x="494" y="519" on="1"/>
        <pt x="503" y="563" on="1"/>
        <pt x="589" y="947" on="0"/>
        <pt x="631" y="1083" on="1"/>
        <pt x="676" y="1232" on="0"/>
        <pt x="727" y="1298" on="1"/>
        <pt x="766" y="1350" on="0"/>
        <pt x="817" y="1359" on="1"/>
        <pt x="820" y="1360" on="0"/>
        <pt x="828" y="1360" on="1"/>
        <pt x="879" y="1360" on="0"/>
        <pt x="941" y="1294" on="0"/>
        <pt x="944" y="1245" on="1"/>
        <pt x="944" y="1216" on="0"/>
        <pt x="915" y="1183" on="0"/>
        <pt x="887" y="1183" on="1"/>
        <pt x="864" y="1183" on="0"/>
        <pt x="832" y="1215" on="0"/>
        <pt x="832" y="1239" on="1"/>
        <pt x="832" y="1282" on="0"/>
        <pt x="885" y="1296" on="1"/>
        <pt x="882" y="1300" on="1"/>
        <pt x="879" y="1303" on="0"/>
        <pt x="869" y="1311" on="0"/>
        <pt x="866" y="1313" on="1"/>
        <pt x="851" y="1323" on="0"/>
        <pt x="833" y="1323" on="1"/>
        <pt x="828" y="1323" on="0"/>
        <pt x="826" y="1322" on="1"/>
        <pt x="794" y="1313" on="0"/>
        <pt x="761" y="1222" on="1"/>
        <pt x="728" y="1132" on="0"/>
        <pt x="688" y="929" on="1"/>
        <pt x="658" y="786" on="0"/>
        <pt x="610" y="496" on="1"/>
        <pt x="686" y="458" on="0"/>
        <pt x="724" y="400" on="1"/>
        <pt x="770" y="330" on="0"/>
        <pt x="770" y="249" on="1"/>
        <pt x="770" y="166" on="0"/>
        <pt x="724" y="99" on="1"/>
        <pt x="693" y="50" on="0"/>
        <pt x="583" y="-15" on="0"/>
        <pt x="516" y="-21" on="1"/>
        <pt x="506" y="-21" on="1"/>
        <pt x="497" y="-65" on="1"/>
        <pt x="415" y="-427" on="0"/>
        <pt x="370" y="-582" on="1"/>
        <pt x="325" y="-731" on="0"/>
        <pt x="274" y="-799" on="1"/>
        <pt x="229" y="-862" on="0"/>
        <pt x="165" y="-862" on="1"/>
        <pt x="120" y="-862" on="0"/>
        <pt x="57" y="-794" on="0"/>
        <pt x="55" y="-746" on="1"/>
        <pt x="55" y="-718" on="0"/>
        <pt x="85" y="-685" on="0"/>
        <pt x="112" y="-685" on="1"/>
        <pt x="135" y="-685" on="0"/>
        <pt x="167" y="-717" on="0"/>
      </contour>
      <contour>
        <pt x="431" y="223" on="1"/>
        <pt x="438" y="254" on="0"/>
        <pt x="464" y="382" on="0"/>
        <pt x="483" y="473" on="0"/>
        <pt x="485" y="478" on="1"/>
        <pt x="480" y="478" on="1"/>
        <pt x="444" y="478" on="0"/>
        <pt x="400" y="456" on="1"/>
        <pt x="354" y="434" on="0"/>
        <pt x="289" y="354" on="0"/>
        <pt x="277" y="304" on="1"/>
        <pt x="271" y="281" on="0"/>
        <pt x="271" y="217" on="0"/>
        <pt x="277" y="194" on="1"/>
        <pt x="297" y="107" on="0"/>
        <pt x="375" y="56" on="1"/>
        <pt x="397" y="43" on="1"/>
        <pt x="398" y="43" on="0"/>
        <pt x="400" y="57" on="1"/>
        <pt x="403" y="74" on="0"/>
        <pt x="428" y="206" on="0"/>
      </contour>
      <contour>
        <pt x="730" y="249" on="1"/>
        <pt x="730" y="383" on="0"/>
        <pt x="603" y="455" on="1"/>
        <pt x="594" y="419" on="0"/>
        <pt x="569" y="276" on="1"/>
        <pt x="562" y="246" on="0"/>
        <pt x="536" y="116" on="0"/>
        <pt x="517" y="25" on="0"/>
        <pt x="515" y="20" on="1"/>
        <pt x="519" y="20" on="1"/>
        <pt x="531" y="20" on="0"/>
        <pt x="555" y="26" on="1"/>
        <pt x="622" y="42" on="0"/>
        <pt x="715" y="144" on="0"/>
        <pt x="728" y="216" on="1"/>
        <pt x="730" y="232" on="0"/>
      </contour>
    </TTGlyph>
    <TTGlyph name="uni22C0" xMin="55" yMin="-450" xMax="1055" yMax="950">
      <contour>
        <pt x="1055" y="-401" on="1"/>
        <pt x="1055" y="-420" on="0"/>
        <pt x="1027" y="-450" on="0"/>
        <pt x="1007" y="-450" on="1"/>
        <pt x="977" y="-450" on="0"/>
        <pt x="963" y="-423" on="1"/>
        <pt x="959" y="-417" on="0"/>
        <pt x="555" y="750" on="1"/>
        <pt x="150" y="-419" on="0"/>
        <pt x="147" y="-423" on="1"/>
        <pt x="134" y="-450" on="0"/>
        <pt x="104" y="-450" on="1"/>
        <pt x="84" y="-450" on="0"/>
        <pt x="55" y="-421" on="0"/>
        <pt x="55" y="-401" on="1"/>
        <pt x="55" y="-394" on="0"/>
        <pt x="56" y="-390" on="1"/>
        <pt x="59" y="-381" on="0"/>
        <pt x="510" y="921" on="0"/>
        <pt x="512" y="925" on="1"/>
        <pt x="524" y="950" on="0"/>
        <pt x="555" y="950" on="1"/>
        <pt x="583" y="950" on="0"/>
        <pt x="597" y="926" on="1"/>
        <pt x="599" y="923" on="0"/>
        <pt x="1052" y="-384" on="0"/>
        <pt x="1054" y="-391" on="1"/>
        <pt x="1055" y="-394" on="0"/>
      </contour>
    </TTGlyph>
    <TTGlyph name="uni22C1" xMin="55" yMin="-450" xMax="1055" yMax="950">
      <contour>
        <pt x="55" y="900" on="1"/>
        <pt x="55" y="919" on="0"/>
        <pt x="82" y="950" on="0"/>
        <pt x="103" y="950" on="1"/>
        <pt x="134" y="950" on="0"/>
        <pt x="147" y="924" on="1"/>
        <pt x="153" y="912" on="0"/>
        <pt x="555" y="-250" on="1"/>
        <pt x="962" y="922" on="0"/>
        <pt x="963" y="924" on="1"/>
        <pt x="978" y="950" on="0"/>
        <pt x="1007" y="950" on="1"/>
        <pt x="1027" y="950" on="0"/>
        <pt x="1055" y="920" on="0"/>
        <pt x="1055" y="901" on="1"/>
        <pt x="1055" y="894" on="0"/>
        <pt x="1054" y="891" on="1"/>
        <pt x="1052" y="884" on="0"/>
        <pt x="599" y="-423" on="0"/>
        <pt x="597" y="-426" on="1"/>
        <pt x="584" y="-450" on="0"/>
        <pt x="556" y="-450" on="1"/>
        <pt x="527" y="-450" on="0"/>
        <pt x="512" y="-424" on="1"/>
        <pt x="510" y="-421" on="0"/>
        <pt x="59" y="880" on="0"/>
        <pt x="56" y="890" on="1"/>
        <pt x="55" y="893" on="0"/>
      </contour>
    </TTGlyph>
    <TTGlyph name="uni22C2" xMin="55" yMin="-450" xMax="1055" yMax="949">
      <contour>
        <pt x="520" y="949" on="1"/>
        <pt x="542" y="949" on="1"/>
        <pt x="594" y="949" on="0"/>
        <pt x="606" y="948" on="1"/>
        <pt x="751" y="932" on="0"/>
        <pt x="863" y="847" on="1"/>
        <pt x="937" y="792" on="0"/>
        <pt x="1034" y="634" on="0"/>
        <pt x="1048" y="545" on="1"/>
        <pt x="1053" y="516" on="0"/>
        <pt x="1054" y="433" on="0"/>
        <pt x="1055" y="49" on="1"/>
        <pt x="1055" y="-406" on="0"/>
        <pt x="1054" y="-410" on="1"/>
        <pt x="1051" y="-427" on="0"/>
        <pt x="1023" y="-450" on="0"/>
        <pt x="989" y="-450" on="0"/>
        <pt x="962" y="-428" on="0"/>
        <pt x="958" y="-411" on="1"/>
        <pt x="957" y="-407" on="0"/>
        <pt x="957" y="37" on="1"/>
        <pt x="957" y="484" on="0"/>
        <pt x="956" y="494" on="1"/>
        <pt x="946" y="639" on="0"/>
        <pt x="718" y="852" on="0"/>
        <pt x="554" y="852" on="1"/>
        <pt x="481" y="852" on="0"/>
        <pt x="411" y="826" on="1"/>
        <pt x="301" y="786" on="0"/>
        <pt x="162" y="606" on="0"/>
        <pt x="154" y="494" on="1"/>
        <pt x="153" y="484" on="0"/>
        <pt x="153" y="37" on="1"/>
        <pt x="153" y="-407" on="0"/>
        <pt x="152" y="-411" on="1"/>
        <pt x="148" y="-428" on="0"/>
        <pt x="121" y="-450" on="0"/>
        <pt x="87" y="-450" on="0"/>
        <pt x="59" y="-427" on="0"/>
        <pt x="56" y="-410" on="1"/>
        <pt x="55" y="-406" on="0"/>
        <pt x="55" y="49" on="1"/>
        <pt x="56" y="505" on="0"/>
        <pt x="57" y="516" on="1"/>
        <pt x="81" y="711" on="0"/>
        <pt x="225" y="830" on="1"/>
        <pt x="353" y="935" on="0"/>
      </contour>
    </TTGlyph>
    <TTGlyph name="uni22C3" xMin="55" yMin="-449" xMax="1055" yMax="950">
      <contour>
        <pt x="56" y="911" on="1"/>
        <pt x="58" y="927" on="0"/>
        <pt x="85" y="950" on="0"/>
        <pt x="103" y="950" on="1"/>
        <pt x="120" y="950" on="0"/>
        <pt x="148" y="928" on="0"/>
        <pt x="152" y="911" on="1"/>
        <pt x="153" y="907" on="0"/>
        <pt x="153" y="463" on="1"/>
        <pt x="153" y="16" on="0"/>
        <pt x="154" y="6" on="1"/>
        <pt x="164" y="-139" on="0"/>
        <pt x="392" y="-352" on="0"/>
        <pt x="556" y="-352" on="1"/>
        <pt x="630" y="-352" on="0"/>
        <pt x="700" y="-326" on="1"/>
        <pt x="809" y="-286" on="0"/>
        <pt x="948" y="-106" on="0"/>
        <pt x="956" y="6" on="1"/>
        <pt x="957" y="16" on="0"/>
        <pt x="957" y="463" on="1"/>
        <pt x="957" y="907" on="0"/>
        <pt x="958" y="911" on="1"/>
        <pt x="962" y="928" on="0"/>
        <pt x="989" y="950" on="0"/>
        <pt x="1023" y="950" on="0"/>
        <pt x="1051" y="927" on="0"/>
        <pt x="1054" y="911" on="1"/>
        <pt x="1055" y="906" on="0"/>
        <pt x="1055" y="451" on="1"/>
        <pt x="1054" y="-5" on="0"/>
        <pt x="1053" y="-16" on="1"/>
        <pt x="1042" y="-106" on="0"/>
        <pt x="1003" y="-182" on="1"/>
        <pt x="928" y="-325" on="0"/>
        <pt x="781" y="-398" on="1"/>
        <pt x="674" y="-449" on="0"/>
        <pt x="555" y="-449" on="1"/>
        <pt x="511" y="-449" on="0"/>
        <pt x="480" y="-444" on="1"/>
        <pt x="394" y="-432" on="0"/>
        <pt x="237" y="-349" on="0"/>
        <pt x="179" y="-286" on="1"/>
        <pt x="83" y="-180" on="0"/>
        <pt x="62" y="-45" on="1"/>
        <pt x="57" y="-16" on="0"/>
        <pt x="56" y="67" on="0"/>
        <pt x="55" y="451" on="1"/>
        <pt x="55" y="906" on="0"/>
      </contour>
    </TTGlyph>
    <TTGlyph name="uni2308" xMin="224" yMin="-649" xMax="511" yMax="1150">
      <contour>
        <pt x="224" y="-649" on="1"/>
        <pt x="224" y="1150" on="1"/>
        <pt x="511" y="1150" on="1"/>
        <pt x="511" y="1099" on="1"/>
        <pt x="275" y="1099" on="1"/>
        <pt x="275" y="-649" on="1"/>
      </contour>
    </TTGlyph>
    <TTGlyph name="uni2309" xMin="16" yMin="-649" xMax="303" yMax="1150">
      <contour>
        <pt x="16" y="1099" on="1"/>
        <pt x="16" y="1150" on="1"/>
        <pt x="303" y="1150" on="1"/>
        <pt x="303" y="-649" on="1"/>
        <pt x="252" y="-649" on="1"/>
        <pt x="252" y="1099" on="1"/>
      </contour>
    </TTGlyph>
    <TTGlyph name="uni230A" xMin="224" yMin="-649" xMax="511" yMax="1150">
      <contour>
        <pt x="224" y="-649" on="1"/>
        <pt x="224" y="1150" on="1"/>
        <pt x="275" y="1150" on="1"/>
        <pt x="275" y="-598" on="1"/>
        <pt x="511" y="-598" on="1"/>
        <pt x="511" y="-649" on="1"/>
      </contour>
    </TTGlyph>
    <TTGlyph name="uni230B" xMin="16" yMin="-649" xMax="303" yMax="1150">
      <contour>
        <pt x="252" y="-598" on="1"/>
        <pt x="252" y="1150" on="1"/>
        <pt x="303" y="1150" on="1"/>
        <pt x="303" y="-649" on="1"/>
        <pt x="16" y="-649" on="1"/>
        <pt x="16" y="-598" on="1"/>
      </contour>
    </TTGlyph>
    <TTGlyph name="uni27E8" xMin="112" yMin="-649" xMax="523" yMax="1150">
      <contour>
        <pt x="112" y="244" on="1"/>
        <pt x="112" y="258" on="1"/>
        <pt x="290" y="689" on="1"/>
        <pt x="446" y="1061" on="0"/>
        <pt x="473" y="1130" on="1"/>
        <pt x="479" y="1141" on="0"/>
        <pt x="488" y="1150" on="0"/>
        <pt x="498" y="1150" on="1"/>
        <pt x="510" y="1150" on="0"/>
        <pt x="524" y="1135" on="0"/>
        <pt x="523" y="1125" on="1"/>
        <pt x="523" y="1118" on="1"/>
        <pt x="344" y="685" on="1"/>
        <pt x="304" y="587" on="0"/>
        <pt x="209" y="359" on="0"/>
        <pt x="187" y="305" on="1"/>
        <pt x="165" y="251" on="1"/>
        <pt x="344" y="-184" on="1"/>
        <pt x="523" y="-616" on="1"/>
        <pt x="523" y="-623" on="1"/>
        <pt x="524" y="-634" on="0"/>
        <pt x="509" y="-649" on="0"/>
        <pt x="499" y="-649" on="1"/>
        <pt x="484" y="-649" on="0"/>
        <pt x="473" y="-629" on="1"/>
        <pt x="446" y="-560" on="0"/>
        <pt x="290" y="-188" on="1"/>
      </contour>
    </TTGlyph>
    <TTGlyph name="uni27E9" xMin="86" yMin="-649" xMax="498" yMax="1150">
      <contour>
        <pt x="112" y="-649" on="1"/>
        <pt x="102" y="-649" on="0"/>
        <pt x="86" y="-633" on="0"/>
        <pt x="87" y="-623" on="1"/>
        <pt x="87" y="-616" on="1"/>
        <pt x="266" y="-184" on="1"/>
        <pt x="445" y="251" on="1"/>
        <pt x="445" y="252" on="0"/>
        <pt x="267" y="680" on="0"/>
        <pt x="88" y="1116" on="0"/>
        <pt x="86" y="1123" on="1"/>
        <pt x="85" y="1133" on="0"/>
        <pt x="99" y="1150" on="0"/>
        <pt x="110" y="1150" on="1"/>
        <pt x="126" y="1150" on="0"/>
        <pt x="133" y="1137" on="1"/>
        <pt x="134" y="1136" on="0"/>
        <pt x="317" y="695" on="1"/>
        <pt x="498" y="258" on="1"/>
        <pt x="498" y="244" on="1"/>
        <pt x="317" y="-194" on="1"/>
        <pt x="134" y="-635" on="0"/>
        <pt x="133" y="-636" on="1"/>
        <pt x="126" y="-649" on="0"/>
      </contour>
    </TTGlyph>
    <TTGlyph name="uni2A00" xMin="56" yMin="-449" xMax="1454" yMax="949">
      <contour>
        <pt x="668" y="944" on="1"/>
        <pt x="698" y="949" on="0"/>
        <pt x="744" y="949" on="1"/>
        <pt x="803" y="949" on="0"/>
        <pt x="814" y="948" on="1"/>
        <pt x="945" y="934" on="0"/>
        <pt x="1051" y="884" on="1"/>
        <pt x="1271" y="781" on="0"/>
        <pt x="1380" y="563" on="1"/>
        <pt x="1454" y="415" on="0"/>
        <pt x="1454" y="250" on="1"/>
        <pt x="1454" y="134" on="0"/>
        <pt x="1416" y="22" on="1"/>
        <pt x="1352" y="-164" on="0"/>
        <pt x="1204" y="-287" on="1"/>
        <pt x="1047" y="-418" on="0"/>
        <pt x="847" y="-444" on="1"/>
        <pt x="811" y="-449" on="0"/>
        <pt x="699" y="-449" on="0"/>
        <pt x="664" y="-444" on="1"/>
        <pt x="485" y="-420" on="0"/>
        <pt x="206" y="-213" on="0"/>
        <pt x="130" y="-63" on="1"/>
        <pt x="56" y="85" on="0"/>
        <pt x="56" y="250" on="1"/>
        <pt x="56" y="366" on="0"/>
        <pt x="94" y="478" on="1"/>
        <pt x="158" y="664" on="0"/>
        <pt x="307" y="787" on="1"/>
        <pt x="466" y="920" on="0"/>
      </contour>
      <contour>
        <pt x="809" y="850" on="1"/>
        <pt x="798" y="851" on="0"/>
        <pt x="747" y="851" on="1"/>
        <pt x="700" y="851" on="0"/>
        <pt x="678" y="847" on="1"/>
        <pt x="501" y="824" on="0"/>
        <pt x="367" y="710" on="1"/>
        <pt x="243" y="603" on="0"/>
        <pt x="184" y="439" on="1"/>
        <pt x="154" y="347" on="0"/>
        <pt x="154" y="251" on="1"/>
        <pt x="154" y="92" on="0"/>
        <pt x="233" y="-49" on="1"/>
        <pt x="305" y="-173" on="0"/>
        <pt x="549" y="-336" on="0"/>
        <pt x="708" y="-350" on="1"/>
        <pt x="726" y="-352" on="0"/>
        <pt x="755" y="-352" on="1"/>
        <pt x="785" y="-352" on="0"/>
        <pt x="803" y="-350" on="1"/>
        <pt x="913" y="-340" on="0"/>
        <pt x="1010" y="-295" on="1"/>
        <pt x="1112" y="-248" on="0"/>
        <pt x="1270" y="-82" on="0"/>
        <pt x="1312" y="24" on="1"/>
        <pt x="1356" y="135" on="0"/>
        <pt x="1356" y="250" on="1"/>
        <pt x="1356" y="417" on="0"/>
        <pt x="1191" y="690" on="0"/>
        <pt x="1065" y="766" on="1"/>
        <pt x="946" y="837" on="0"/>
      </contour>
      <contour>
        <pt x="665" y="250" on="1"/>
        <pt x="665" y="290" on="0"/>
        <pt x="718" y="341" on="0"/>
        <pt x="758" y="341" on="1"/>
        <pt x="794" y="339" on="0"/>
        <pt x="845" y="289" on="0"/>
        <pt x="845" y="250" on="1"/>
        <pt x="845" y="210" on="0"/>
        <pt x="794" y="160" on="0"/>
        <pt x="755" y="160" on="1"/>
        <pt x="722" y="160" on="0"/>
        <pt x="675" y="199" on="0"/>
        <pt x="667" y="228" on="1"/>
        <pt x="665" y="240" on="0"/>
      </contour>
    </TTGlyph>
    <TTGlyph name="uni2A01" xMin="56" yMin="-449" xMax="1454" yMax="949">
      <contour>
        <pt x="668" y="944" on="1"/>
        <pt x="698" y="949" on="0"/>
        <pt x="744" y="949" on="1"/>
        <pt x="803" y="949" on="0"/>
        <pt x="814" y="948" on="1"/>
        <pt x="945" y="934" on="0"/>
        <pt x="1051" y="884" on="1"/>
        <pt x="1271" y="781" on="0"/>
        <pt x="1380" y="563" on="1"/>
        <pt x="1454" y="415" on="0"/>
        <pt x="1454" y="250" on="1"/>
        <pt x="1454" y="134" on="0"/>
        <pt x="1416" y="22" on="1"/>
        <pt x="1352" y="-164" on="0"/>
        <pt x="1204" y="-287" on="1"/>
        <pt x="1047" y="-418" on="0"/>
        <pt x="847" y="-444" on="1"/>
        <pt x="811" y="-449" on="0"/>
        <pt x="699" y="-449" on="0"/>
        <pt x="664" y="-444" on="1"/>
        <pt x="485" y="-420" on="0"/>
        <pt x="206" y="-213" on="0"/>
        <pt x="130" y="-63" on="1"/>
        <pt x="56" y="85" on="0"/>
        <pt x="56" y="250" on="1"/>
        <pt x="56" y="366" on="0"/>
        <pt x="94" y="478" on="1"/>
        <pt x="158" y="664" on="0"/>
        <pt x="307" y="787" on="1"/>
        <pt x="466" y="920" on="0"/>
      </contour>
      <contour>
        <pt x="706" y="299" on="1"/>
        <pt x="706" y="850" on="1"/>
        <pt x="704" y="850" on="1"/>
        <pt x="660" y="846" on="0"/>
        <pt x="622" y="837" on="1"/>
        <pt x="444" y="797" on="0"/>
        <pt x="192" y="533" on="0"/>
        <pt x="161" y="342" on="1"/>
        <pt x="156" y="312" on="0"/>
        <pt x="156" y="300" on="1"/>
        <pt x="156" y="299" on="0"/>
        <pt x="431" y="299" on="1"/>
      </contour>
      <contour>
        <pt x="832" y="847" on="1"/>
        <pt x="814" y="849" on="0"/>
        <pt x="810" y="849" on="1"/>
        <pt x="804" y="850" on="1"/>
        <pt x="804" y="299" on="1"/>
        <pt x="1079" y="299" on="1"/>
        <pt x="1354" y="299" on="0"/>
        <pt x="1354" y="300" on="1"/>
        <pt x="1354" y="302" on="1"/>
        <pt x="1353" y="304" on="0"/>
        <pt x="1352" y="312" on="0"/>
        <pt x="1352" y="315" on="1"/>
        <pt x="1339" y="440" on="0"/>
        <pt x="1215" y="657" on="0"/>
        <pt x="1116" y="732" on="1"/>
        <pt x="987" y="827" on="0"/>
      </contour>
      <contour>
        <pt x="706" y="-350" on="1"/>
        <pt x="706" y="201" on="1"/>
        <pt x="431" y="201" on="1"/>
        <pt x="156" y="201" on="0"/>
        <pt x="156" y="200" on="1"/>
        <pt x="156" y="198" on="1"/>
        <pt x="157" y="196" on="0"/>
        <pt x="158" y="188" on="0"/>
        <pt x="158" y="185" on="1"/>
        <pt x="171" y="60" on="0"/>
        <pt x="295" y="-157" on="0"/>
        <pt x="395" y="-232" on="1"/>
        <pt x="528" y="-332" on="0"/>
        <pt x="700" y="-349" on="1"/>
      </contour>
      <contour>
        <pt x="1354" y="200" on="1"/>
        <pt x="1354" y="201" on="0"/>
        <pt x="1079" y="201" on="1"/>
        <pt x="804" y="201" on="1"/>
        <pt x="804" y="-350" on="1"/>
        <pt x="810" y="-349" on="1"/>
        <pt x="917" y="-339" on="0"/>
        <pt x="1010" y="-295" on="1"/>
        <pt x="1112" y="-248" on="0"/>
        <pt x="1270" y="-82" on="0"/>
        <pt x="1312" y="24" on="1"/>
        <pt x="1337" y="87" on="0"/>
        <pt x="1349" y="158" on="1"/>
        <pt x="1354" y="188" on="0"/>
      </contour>
    </TTGlyph>
    <TTGlyph name="uni2A02" xMin="56" yMin="-449" xMax="1454" yMax="949">
      <contour>
        <pt x="668" y="944" on="1"/>
        <pt x="698" y="949" on="0"/>
        <pt x="744" y="949" on="1"/>
        <pt x="803" y="949" on="0"/>
        <pt x="814" y="948" on="1"/>
        <pt x="945" y="934" on="0"/>
        <pt x="1051" y="884" on="1"/>
        <pt x="1271" y="781" on="0"/>
        <pt x="1380" y="563" on="1"/>
        <pt x="1454" y="415" on="0"/>
        <pt x="1454" y="250" on="1"/>
        <pt x="1454" y="134" on="0"/>
        <pt x="1416" y="22" on="1"/>
        <pt x="1352" y="-164" on="0"/>
        <pt x="1204" y="-287" on="1"/>
        <pt x="1047" y="-418" on="0"/>
        <pt x="847" y="-444" on="1"/>
        <pt x="811" y="-449" on="0"/>
        <pt x="699" y="-449" on="0"/>
        <pt x="664" y="-444" on="1"/>
        <pt x="485" y="-420" on="0"/>
        <pt x="206" y="-213" on="0"/>
        <pt x="130" y="-63" on="1"/>
        <pt x="56" y="85" on="0"/>
        <pt x="56" y="250" on="1"/>
        <pt x="56" y="366" on="0"/>
        <pt x="94" y="478" on="1"/>
        <pt x="158" y="664" on="0"/>
        <pt x="307" y="787" on="1"/>
        <pt x="466" y="920" on="0"/>
      </contour>
      <contour>
        <pt x="809" y="850" on="1"/>
        <pt x="798" y="851" on="0"/>
        <pt x="747" y="851" on="1"/>
        <pt x="728" y="851" on="1"/>
        <pt x="716" y="851" on="0"/>
        <pt x="708" y="850" on="1"/>
        <pt x="541" y="837" on="0"/>
        <pt x="408" y="741" on="1"/>
        <pt x="367" y="713" on="0"/>
        <pt x="367" y="709" on="1"/>
        <pt x="454" y="621" on="0"/>
        <pt x="561" y="514" on="1"/>
        <pt x="755" y="320" on="1"/>
        <pt x="949" y="514" on="1"/>
        <pt x="1143" y="709" on="1"/>
        <pt x="1143" y="713" on="0"/>
        <pt x="1102" y="741" on="1"/>
        <pt x="972" y="833" on="0"/>
      </contour>
      <contour>
        <pt x="685" y="250" on="1"/>
        <pt x="427" y="510" on="0"/>
        <pt x="297" y="639" on="1"/>
        <pt x="291" y="639" on="0"/>
        <pt x="251" y="579" on="1"/>
        <pt x="219" y="527" on="0"/>
        <pt x="198" y="476" on="1"/>
        <pt x="154" y="365" on="0"/>
        <pt x="154" y="250" on="1"/>
        <pt x="154" y="92" on="0"/>
        <pt x="233" y="-49" on="1"/>
        <pt x="243" y="-68" on="0"/>
        <pt x="269" y="-104" on="1"/>
        <pt x="293" y="-139" on="0"/>
        <pt x="297" y="-139" on="1"/>
        <pt x="427" y="-10" on="0"/>
      </contour>
      <contour>
        <pt x="1223" y="627" on="1"/>
        <pt x="1214" y="639" on="0"/>
        <pt x="1213" y="639" on="1"/>
        <pt x="1125" y="551" on="0"/>
        <pt x="1019" y="444" on="1"/>
        <pt x="825" y="250" on="1"/>
        <pt x="1083" y="-10" on="0"/>
        <pt x="1213" y="-139" on="1"/>
        <pt x="1219" y="-139" on="0"/>
        <pt x="1259" y="-79" on="1"/>
        <pt x="1291" y="-27" on="0"/>
        <pt x="1312" y="24" on="1"/>
        <pt x="1356" y="135" on="0"/>
        <pt x="1356" y="250" on="1"/>
        <pt x="1356" y="408" on="0"/>
        <pt x="1277" y="549" on="1"/>
        <pt x="1252" y="592" on="0"/>
      </contour>
      <contour>
        <pt x="1143" y="-209" on="1"/>
        <pt x="1149" y="-215" on="0"/>
        <pt x="950" y="-14" on="0"/>
        <pt x="750" y="186" on="0"/>
        <pt x="755" y="180" on="1"/>
        <pt x="754" y="180" on="0"/>
        <pt x="367" y="-208" on="0"/>
        <pt x="367" y="-209" on="1"/>
        <pt x="367" y="-211" on="0"/>
        <pt x="419" y="-249" on="0"/>
        <pt x="435" y="-259" on="1"/>
        <pt x="556" y="-336" on="0"/>
        <pt x="707" y="-350" on="1"/>
        <pt x="725" y="-352" on="0"/>
        <pt x="785" y="-352" on="0"/>
        <pt x="803" y="-350" on="1"/>
        <pt x="953" y="-336" on="0"/>
        <pt x="1076" y="-259" on="1"/>
        <pt x="1092" y="-249" on="0"/>
        <pt x="1143" y="-211" on="0"/>
      </contour>
    </TTGlyph>
    <TTGlyph name="uni2A04" xMin="55" yMin="-449" xMax="1055" yMax="950">
      <contour>
        <pt x="56" y="911" on="1"/>
        <pt x="58" y="927" on="0"/>
        <pt x="85" y="950" on="0"/>
        <pt x="103" y="950" on="1"/>
        <pt x="120" y="950" on="0"/>
        <pt x="148" y="928" on="0"/>
        <pt x="152" y="911" on="1"/>
        <pt x="153" y="907" on="0"/>
        <pt x="153" y="463" on="1"/>
        <pt x="153" y="16" on="0"/>
        <pt x="154" y="6" on="1"/>
        <pt x="164" y="-139" on="0"/>
        <pt x="392" y="-352" on="0"/>
        <pt x="556" y="-352" on="1"/>
        <pt x="630" y="-352" on="0"/>
        <pt x="700" y="-326" on="1"/>
        <pt x="809" y="-286" on="0"/>
        <pt x="948" y="-106" on="0"/>
        <pt x="956" y="6" on="1"/>
        <pt x="957" y="16" on="0"/>
        <pt x="957" y="463" on="1"/>
        <pt x="957" y="907" on="0"/>
        <pt x="958" y="911" on="1"/>
        <pt x="962" y="928" on="0"/>
        <pt x="989" y="950" on="0"/>
        <pt x="1023" y="950" on="0"/>
        <pt x="1051" y="927" on="0"/>
        <pt x="1054" y="911" on="1"/>
        <pt x="1055" y="906" on="0"/>
        <pt x="1055" y="451" on="1"/>
        <pt x="1054" y="-5" on="0"/>
        <pt x="1053" y="-16" on="1"/>
        <pt x="1042" y="-106" on="0"/>
        <pt x="1003" y="-182" on="1"/>
        <pt x="928" y="-325" on="0"/>
        <pt x="781" y="-398" on="1"/>
        <pt x="674" y="-449" on="0"/>
        <pt x="555" y="-449" on="1"/>
        <pt x="511" y="-449" on="0"/>
        <pt x="480" y="-444" on="1"/>
        <pt x="394" y="-432" on="0"/>
        <pt x="237" y="-349" on="0"/>
        <pt x="179" y="-286" on="1"/>
        <pt x="83" y="-180" on="0"/>
        <pt x="62" y="-45" on="1"/>
        <pt x="57" y="-16" on="0"/>
        <pt x="56" y="67" on="0"/>
        <pt x="55" y="451" on="1"/>
        <pt x="55" y="906" on="0"/>
      </contour>
      <contour>
        <pt x="507" y="554" on="1"/>
        <pt x="511" y="570" on="0"/>
        <pt x="536" y="593" on="0"/>
        <pt x="554" y="593" on="1"/>
        <pt x="571" y="593" on="0"/>
        <pt x="599" y="571" on="0"/>
        <pt x="603" y="554" on="1"/>
        <pt x="604" y="551" on="0"/>
        <pt x="604" y="443" on="1"/>
        <pt x="604" y="338" on="1"/>
        <pt x="709" y="338" on="1"/>
        <pt x="817" y="338" on="0"/>
        <pt x="820" y="337" on="1"/>
        <pt x="836" y="334" on="0"/>
        <pt x="859" y="307" on="0"/>
        <pt x="859" y="290" on="1"/>
        <pt x="859" y="259" on="0"/>
        <pt x="832" y="246" on="1"/>
        <pt x="819" y="239" on="0"/>
        <pt x="788" y="239" on="1"/>
        <pt x="781" y="239" on="0"/>
        <pt x="730" y="240" on="0"/>
        <pt x="709" y="240" on="1"/>
        <pt x="604" y="240" on="1"/>
        <pt x="604" y="134" on="1"/>
        <pt x="604" y="48" on="0"/>
        <pt x="603" y="20" on="0"/>
        <pt x="598" y="11" on="1"/>
        <pt x="583" y="-15" on="0"/>
        <pt x="555" y="-15" on="1"/>
        <pt x="526" y="-15" on="0"/>
        <pt x="512" y="11" on="1"/>
        <pt x="507" y="20" on="0"/>
        <pt x="506" y="48" on="0"/>
        <pt x="506" y="134" on="1"/>
        <pt x="506" y="240" on="1"/>
        <pt x="401" y="240" on="1"/>
        <pt x="380" y="240" on="0"/>
        <pt x="329" y="239" on="0"/>
        <pt x="322" y="239" on="1"/>
        <pt x="291" y="239" on="0"/>
        <pt x="278" y="246" on="1"/>
        <pt x="251" y="259" on="0"/>
        <pt x="251" y="290" on="1"/>
        <pt x="251" y="307" on="0"/>
        <pt x="274" y="334" on="0"/>
        <pt x="290" y="337" on="1"/>
        <pt x="293" y="338" on="0"/>
        <pt x="401" y="338" on="1"/>
        <pt x="506" y="338" on="1"/>
        <pt x="506" y="443" on="1"/>
        <pt x="506" y="551" on="0"/>
      </contour>
    </TTGlyph>
    <TTGlyph name="uni2A06" xMin="55" yMin="-450" xMax="1055" yMax="950">
      <contour>
        <pt x="56" y="911" on="1"/>
        <pt x="60" y="927" on="0"/>
        <pt x="85" y="950" on="0"/>
        <pt x="103" y="950" on="1"/>
        <pt x="120" y="950" on="0"/>
        <pt x="148" y="928" on="0"/>
        <pt x="152" y="911" on="1"/>
        <pt x="153" y="907" on="0"/>
        <pt x="153" y="277" on="1"/>
        <pt x="153" y="-352" on="1"/>
        <pt x="957" y="-352" on="1"/>
        <pt x="957" y="277" on="1"/>
        <pt x="957" y="907" on="0"/>
        <pt x="958" y="911" on="1"/>
        <pt x="962" y="928" on="0"/>
        <pt x="989" y="950" on="0"/>
        <pt x="1023" y="950" on="0"/>
        <pt x="1050" y="928" on="0"/>
        <pt x="1054" y="911" on="1"/>
        <pt x="1054" y="891" on="1"/>
        <pt x="1054" y="871" on="0"/>
        <pt x="1054" y="800" on="0"/>
        <pt x="1054" y="707" on="0"/>
        <pt x="1055" y="587" on="0"/>
        <pt x="1055" y="462" on="0"/>
        <pt x="1055" y="317" on="0"/>
        <pt x="1055" y="183" on="0"/>
        <pt x="1055" y="38" on="0"/>
        <pt x="1055" y="-87" on="0"/>
        <pt x="1054" y="-207" on="0"/>
        <pt x="1054" y="-300" on="0"/>
        <pt x="1054" y="-371" on="0"/>
        <pt x="1054" y="-391" on="1"/>
        <pt x="1054" y="-411" on="1"/>
        <pt x="1047" y="-442" on="0"/>
        <pt x="1016" y="-449" on="1"/>
        <pt x="1011" y="-450" on="0"/>
        <pt x="552" y="-450" on="1"/>
        <pt x="94" y="-449" on="1"/>
        <pt x="64" y="-438" on="0"/>
        <pt x="56" y="-411" on="1"/>
        <pt x="56" y="-391" on="1"/>
        <pt x="56" y="-371" on="0"/>
        <pt x="56" y="-300" on="0"/>
        <pt x="56" y="-207" on="0"/>
        <pt x="55" y="-87" on="0"/>
        <pt x="55" y="38" on="0"/>
        <pt x="55" y="183" on="0"/>
        <pt x="55" y="317" on="0"/>
        <pt x="55" y="462" on="0"/>
        <pt x="55" y="587" on="0"/>
        <pt x="56" y="707" on="0"/>
        <pt x="56" y="800" on="0"/>
        <pt x="56" y="871" on="0"/>
        <pt x="56" y="891" on="1"/>
      </contour>
    </TTGlyph>
    <TTGlyph name="uniEFFD" xMin="0" yMin="0" xMax="300" yMax="100">
      <contour>
        <pt x="0" y="0" on="1"/>
        <pt x="0" y="100" on="1"/>
        <pt x="100" y="100" on="1"/>
        <pt x="100" y="0" on="1"/>
      </contour>
      <contour>
        <pt x="200" y="0" on="1"/>
        <pt x="200" y="100" on="1"/>
        <pt x="300" y="100" on="1"/>
        <pt x="300" y="0" on="1"/>
      </contour>
    </TTGlyph>
    <TTGlyph name="uniEFFE" xMin="0" yMin="0" xMax="300" yMax="100">
      <contour>
        <pt x="0" y="0" on="1"/>
        <pt x="0" y="100" on="1"/>
        <pt x="100" y="100" on="1"/>
        <pt x="100" y="0" on="1"/>
      </contour>
      <contour>
        <pt x="200" y="0" on="1"/>
        <pt x="200" y="100" on="1"/>
        <pt x="300" y="100" on="1"/>
        <pt x="300" y="0" on="1"/>
      </contour>
    </TTGlyph>
    <TTGlyph name="uniEFFF" xMin="0" yMin="0" xMax="100" yMax="100">
      <contour>
        <pt x="0" y="0" on="1"/>
        <pt x="0" y="100" on="1"/>
        <pt x="100" y="100" on="1"/>
        <pt x="100" y="0" on="1"/>
      </contour>
    </TTGlyph>
</ttFont>
